<svg width="635" height="105" xmlns="http://www.w3.org/2000/svg">
 <metadata>image/svg+xml</metadata>
 <defs>
  <clipPath id="a">
   <path id="svg_1" d="m0,80l500,0l0,-80l-500,0l0,80z"/>
  </clipPath>
 </defs>
 <g>
  <title>background</title>
  <rect fill="none" id="canvas_background" height="107" width="637" y="-1" x="-1"/>
 </g>
 <g>
  <title>Layer 1</title>
  <g id="svg_12">
   <path id="svg_4" fill="#231f20" d="m613.308392,73.579526l0,2.535327l-10.19336,0l0,-13.830438l10.054557,0l0,2.533158l-6.610502,0l0,2.904023l6.309039,0l0,2.53099l-6.309039,0l0,3.326939l6.749306,0zm-24.11055,-8.761952l0,8.761952l2.246877,0c1.455265,0 2.570028,-0.401228 3.34429,-1.203684c0.769924,-0.800287 1.158139,-1.856493 1.158139,-3.172954c0,-1.359838 -0.392553,-2.429056 -1.173321,-3.211993c-0.780768,-0.780768 -1.904206,-1.173321 -3.372484,-1.173321l-2.203501,0zm-3.448392,-2.533158l6.098666,0c2.355317,0 4.218316,0.646302 5.588998,1.93457c1.370682,1.290436 2.053854,2.958243 2.053854,5.00559c0.002169,2.144943 -0.696185,3.827932 -2.084217,5.055473c-1.388032,1.221034 -3.372484,1.834805 -5.942512,1.834805l-5.714788,0l0,-13.830438zm-8.588448,11.29511l0,2.535327l-10.542537,0l0,-13.830438l3.446223,0l0,11.29511l7.096314,0zm-19.052908,-2.611235l-2.231695,-5.376455l-2.025659,5.376455l4.257354,0zm-0.277606,-8.683875l6.135535,13.830438l-3.702142,0l-1.140789,-2.734857l-6.185418,0l-1.028011,2.734857l-3.65009,0l5.569478,-13.830438l4.001436,0zm-12.242876,0l0,13.830438l-2.901854,0l-7.642851,-8.861717l0,8.861717l-3.444054,0l0,-13.830438l3.155604,0l7.386933,8.451814l0,-8.451814l3.446223,0zm-25.459543,11.134619c1.307786,0 2.357486,-0.386046 3.159942,-1.160308c0.79595,-0.778599 1.195009,-1.793598 1.195009,-3.055839c0,-1.266579 -0.399059,-2.288084 -1.195009,-3.058008c-0.802456,-0.772093 -1.854324,-1.158139 -3.159942,-1.158139c-1.314293,0 -2.372667,0.386046 -3.172954,1.158139c-0.800287,0.769924 -1.203684,1.791429 -1.203684,3.058008c0,1.260073 0.403397,2.27724 1.203684,3.055839c0.800287,0.772093 1.858662,1.160308 3.172954,1.160308m0,-11.312461c2.355317,0 4.263861,0.711366 5.721294,2.134099c1.459602,1.420564 2.18615,3.075358 2.18615,4.962214c0.002169,1.912882 -0.737392,3.576351 -2.214345,4.981734c-1.48129,1.403214 -3.381159,2.110242 -5.6931,2.110242c-2.342304,-0.002169 -4.250848,-0.702691 -5.721294,-2.099398c-1.472615,-1.403214 -2.210007,-3.064514 -2.210007,-4.992578c0.002169,-1.891194 0.733054,-3.550326 2.190488,-4.97089c1.466109,-1.418395 3.37899,-2.125424 5.740814,-2.125424m-11.568379,14.008279l-3.446223,0l0,-13.830438l3.446223,0l0,13.830438zm-7.358738,-4.220485l0,3.01897c-1.726365,0.919571 -3.535144,1.381526 -5.430675,1.381526c-2.452913,-0.002169 -4.411339,-0.681003 -5.868773,-2.038672c-1.450927,-1.357669 -2.179644,-3.025476 -2.179644,-5.009928c0,-1.98879 0.765586,-3.676116 2.298928,-5.05981c1.537679,-1.385863 3.54165,-2.079879 6.014082,-2.079879c1.975777,0 3.643584,0.407734 5.012097,1.216697l0,3.077527c-1.674314,-0.93909 -3.264044,-1.414058 -4.764854,-1.414058c-1.468278,0 -2.67413,0.394722 -3.604546,1.181996c-0.934753,0.791612 -1.403214,1.793598 -1.403214,3.014632c0,1.227541 0.459786,2.24037 1.383694,3.042826c0.919571,0.79595 2.09723,1.19284 3.537313,1.19284c0.713535,0 1.396707,-0.09109 2.058191,-0.277606c0.661484,-0.190854 1.64395,-0.607264 2.947399,-1.24706m-20.58625,-0.926078l-2.229526,-5.376455l-2.027828,5.376455l4.257354,0zm-0.277606,-8.683875l6.135535,13.830438l-3.702142,0l-1.13862,-2.734857l-6.187586,0l-1.025842,2.734857l-3.652259,0l5.573816,-13.830438l3.997098,0zm-12.240707,0l0,13.830438l-2.904023,0l-7.642851,-8.861717l0,8.861717l-3.441886,0l0,-13.830438l3.155604,0l7.386933,8.451814l0,-8.451814l3.446223,0zm-28.153193,8.683875l-2.229526,-5.376455l-2.029997,5.376455l4.259523,0zm-0.277606,-8.683875l6.135535,13.830438l-3.702142,0l-1.13862,-2.734857l-6.187586,0l-1.025842,2.734857l-3.654428,0l5.573816,-13.830438l3.999267,0zm-12.323122,13.830438l-3.446223,0l0,-13.830438l3.446223,0l0,13.830438zm-7.354401,-4.220485l0,3.01897c-1.726365,0.919571 -3.539482,1.381526 -5.435013,1.381526c-2.452913,-0.002169 -4.40917,-0.681003 -5.866604,-2.038672c-1.450927,-1.357669 -2.181813,-3.025476 -2.181813,-5.009928c0,-1.98879 0.767755,-3.676116 2.301097,-5.05981c1.539848,-1.385863 3.54165,-2.079879 6.014082,-2.079879c1.973608,0 3.643584,0.407734 5.012097,1.216697l0,3.077527c-1.678651,-0.93909 -3.264044,-1.414058 -4.764854,-1.414058c-1.470446,0 -2.671962,0.394722 -3.606714,1.181996c-0.934753,0.791612 -1.401045,1.793598 -1.401045,3.014632c0,1.227541 0.459786,2.24037 1.383694,3.042826c0.919571,0.79595 2.095061,1.19284 3.537313,1.19284c0.713535,0 1.396707,-0.09109 2.056022,-0.277606c0.663653,-0.190854 1.646119,-0.607264 2.951737,-1.24706m-17.040262,-9.609953l0,13.830438l-2.901854,0l-7.64502,-8.861717l0,8.861717l-3.444054,0l0,-13.830438l3.157773,0l7.386933,8.451814l0,-8.451814l3.446223,0zm-21.653299,-4.736659l2.010478,3.554663l-1.802273,0l-1.583224,-1.769741l-1.6266,1.769741l-1.778416,0l2.010478,-3.554663l2.769558,0zm3.95806,16.03177l0,2.535327l-10.19336,0l0,-13.830438l10.056726,0l0,2.533158l-6.610502,0l0,2.904023l6.30687,0l0,2.53099l-6.30687,0l0,3.326939l6.747137,0zm-14.56783,-10.336501l0,3.021138c-1.761066,-0.852338 -3.485262,-1.277423 -5.166082,-1.277423c-1.620094,0 -2.875829,0.407734 -3.752024,1.225372s-1.316462,1.862999 -1.316462,3.131747c0,1.21019 0.440266,2.194826 1.316462,2.949568c0.876195,0.752574 2.032166,1.125607 3.463574,1.125607c0.761249,0 1.522498,-0.164829 2.288084,-0.490149l0.002169,-1.617925l-1.999634,0l0,-2.533158l5.452363,0l0,5.651893c-0.546538,0.546538 -1.379357,0.99331 -2.498458,1.342487c-1.119101,0.344839 -2.225189,0.522681 -3.320433,0.522681c-2.409537,-0.002169 -4.39182,-0.66799 -5.936006,-1.997465c-1.548523,-1.329474 -2.324954,-3.023307 -2.324954,-5.072823c0,-2.099398 0.77643,-3.81275 2.324954,-5.131381c1.544186,-1.327306 3.552494,-1.986621 6.011914,-1.986621c2.036503,0 3.851789,0.37954 5.454532,1.136451m-20.896388,7.725266l-2.227358,-5.376455l-2.029997,5.376455l4.257354,0zm-0.275438,-8.683875l6.135535,13.830438l-3.70431,0l-1.136451,-2.734857l-6.187586,0l-1.028011,2.734857l-3.65009,0l5.569478,-13.830438l4.001436,0z"/>
   <path id="svg_5" fill="#231f20" d="m632.480584,87.34273l0,2.702325c-1.834805,-0.821975 -3.296576,-1.240554 -4.383145,-1.240554c-0.620277,0 -1.114763,0.106271 -1.479122,0.316645c-0.368696,0.203867 -0.550875,0.481474 -0.550875,0.826313c0,0.264594 0.130128,0.514006 0.392553,0.750405c0.264594,0.238568 0.910896,0.544369 1.930232,0.923909c1.025842,0.373034 1.84348,0.72221 2.459419,1.045362c0.61377,0.32532 1.140789,0.782937 1.585393,1.366344c0.446773,0.587745 0.670159,1.333812 0.670159,2.229526c0.002169,1.277423 -0.48798,2.296759 -1.459602,3.060177c-0.971622,0.754742 -2.257721,1.136451 -3.845282,1.136451c-1.715521,0 -3.37899,-0.444604 -4.990409,-1.335981l0.002169,-2.9821c0.926078,0.622446 1.739378,1.073556 2.455082,1.357669c0.713535,0.284113 1.46394,0.427254 2.266396,0.427254c1.353331,-0.002169 2.027828,-0.427254 2.027828,-1.277423c0,-0.290619 -0.134466,-0.563888 -0.405566,-0.819806c-0.268931,-0.262425 -0.923909,-0.572563 -1.958426,-0.943428c-1.025842,-0.368696 -1.845649,-0.713535 -2.452913,-1.028011c-0.602926,-0.318814 -1.123438,-0.769924 -1.563705,-1.359838c-0.438098,-0.587745 -0.657146,-1.335981 -0.657146,-2.255552c0,-1.186334 0.479305,-2.147112 1.433577,-2.875829c0.95861,-0.730886 2.236033,-1.095244 3.843114,-1.095244c1.474784,0 3.038489,0.357852 4.68027,1.071387m-13.06702,10.403734l0,2.535327l-10.19336,0l0,-13.832606l10.056726,0l0,2.535327l-6.61484,0l0,2.901854l6.309039,0l0,2.535327l-6.309039,0l0,3.32477l6.751474,0zm-21.555703,-8.761952l0,3.149098l1.821792,0c0.57907,0 1.038855,-0.136634 1.377188,-0.412072c0.34267,-0.273269 0.509668,-0.661484 0.509668,-1.171152c0,-1.043193 -0.654978,-1.565874 -1.96927,-1.565874l-1.739378,0zm-3.446223,-2.535327l6.176742,0c1.340318,0 2.429056,0.390384 3.266213,1.164646c0.837157,0.778599 1.257904,1.715521 1.257904,2.817271c0,1.522498 -0.793781,2.652442 -2.377005,3.387666c0.698354,0.30797 1.362006,1.158139 1.982283,2.544002c0.626783,1.383694 1.227541,2.691481 1.808779,3.919022l-3.788894,0c-0.225555,-0.457617 -0.615939,-1.325137 -1.173321,-2.604729c-0.55955,-1.279592 -1.038855,-2.103736 -1.437914,-2.465926s-0.828482,-0.544369 -1.279592,-0.544369l-0.988973,0l0,5.615023l-3.446223,0l0,-13.832606zm-3.146929,0l0,2.535327l-5.007759,0l0,11.297279l-3.446223,0l0,-11.297279l-5.00559,0l0,-2.535327l13.459573,0zm-16.39179,0.893546l0,2.702325c-1.832636,-0.821975 -3.294407,-1.240554 -4.380976,-1.240554c-0.622446,0 -1.116932,0.106271 -1.48129,0.316645c-0.368696,0.203867 -0.553044,0.481474 -0.553044,0.826313c0.002169,0.264594 0.134466,0.514006 0.399059,0.750405c0.262425,0.238568 0.908727,0.544369 1.928063,0.923909c1.023674,0.373034 1.841311,0.72221 2.455082,1.045362c0.615939,0.32532 1.142958,0.782937 1.58973,1.366344c0.446773,0.587745 0.66799,1.333812 0.66799,2.229526c0,1.277423 -0.485811,2.296759 -1.459602,3.060177c-0.973791,0.754742 -2.257721,1.136451 -3.845282,1.136451c-1.715521,0 -3.37899,-0.444604 -4.990409,-1.335981l0,-2.9821c0.926078,0.622446 1.743715,1.073556 2.45725,1.357669c0.711366,0.284113 1.466109,0.427254 2.266396,0.427254c1.353331,-0.002169 2.027828,-0.427254 2.027828,-1.277423c0.002169,-0.290619 -0.134466,-0.563888 -0.405566,-0.819806c-0.268931,-0.262425 -0.923909,-0.572563 -1.956258,-0.943428c-1.03018,-0.368696 -1.847818,-0.713535 -2.452913,-1.028011c-0.605095,-0.318814 -1.127776,-0.769924 -1.563705,-1.359838c-0.438098,-0.587745 -0.661484,-1.335981 -0.661484,-2.255552c0,-1.186334 0.481474,-2.147112 1.437914,-2.875829c0.956441,-0.730886 2.236033,-1.095244 3.840945,-1.095244c1.479122,0 3.03632,0.357852 4.68027,1.071387m-13.064851,10.403734l0,2.535327l-10.19336,0l0,-13.832606l10.052388,0l0,2.535327l-6.610502,0l0,2.901854l6.309039,0l0,2.535327l-6.309039,0l0,3.32477l6.751474,0zm-21.560041,-8.761952l0,3.149098l1.821792,0c0.583407,0 1.043193,-0.136634 1.379357,-0.412072c0.340502,-0.273269 0.509668,-0.661484 0.509668,-1.171152c0,-1.043193 -0.654978,-1.565874 -1.96927,-1.565874l-1.741546,0zm-3.444054,-2.535327l6.174574,0c1.340318,0 2.429056,0.390384 3.268382,1.164646c0.839326,0.778599 1.255735,1.715521 1.255735,2.817271c0,1.522498 -0.789443,2.652442 -2.374836,3.387666c0.702691,0.30797 1.362006,1.158139 1.982283,2.544002c0.628952,1.383694 1.22971,2.691481 1.808779,3.919022l-3.791062,0c-0.221218,-0.457617 -0.61377,-1.325137 -1.173321,-2.604729c-0.553044,-1.279592 -1.034518,-2.103736 -1.435746,-2.465926c-0.39689,-0.36219 -0.828482,-0.544369 -1.279592,-0.544369l-0.991142,0l0,5.615023l-3.444054,0l0,-13.832606zm-11.323305,2.535327l0,3.149098l1.821792,0c0.581238,0 1.038855,-0.136634 1.375019,-0.412072c0.344839,-0.273269 0.511837,-0.661484 0.511837,-1.171152c0,-1.043193 -0.654978,-1.565874 -1.96927,-1.565874l-1.739378,0zm-3.446223,-2.535327l6.176742,0c1.342487,0 2.429056,0.390384 3.264044,1.164646c0.841494,0.778599 1.260073,1.715521 1.260073,2.817271c0.002169,1.522498 -0.791612,2.652442 -2.377005,3.387666c0.700522,0.30797 1.362006,1.158139 1.984452,2.544002c0.626783,1.383694 1.225372,2.691481 1.80661,3.919022l-3.791062,0c-0.223386,-0.457617 -0.61377,-1.325137 -1.171152,-2.604729s-1.038855,-2.103736 -1.435746,-2.465926s-0.828482,-0.544369 -1.281761,-0.544369l-0.988973,0l0,5.615023l-3.446223,0l0,-13.832606zm-3.682622,11.297279l0,2.535327l-10.195529,0l0,-13.832606l10.054557,0l0,2.535327l-6.612671,0l0,2.901854l6.311208,0l0,2.535327l-6.311208,0l0,3.32477l6.753643,0zm-13.379327,-11.297279l0,2.535327l-5.012097,0l0,11.297279l-3.444054,0l0,-11.297279l-5.00559,0l0,-2.535327l13.461742,0zm-18.987844,0.893546l0,2.702325c-1.834805,-0.821975 -3.296576,-1.240554 -4.383145,-1.240554c-0.622446,0 -1.114763,0.106271 -1.479122,0.316645c-0.368696,0.203867 -0.553044,0.481474 -0.553044,0.826313c0.004338,0.264594 0.132297,0.514006 0.394722,0.750405c0.266762,0.238568 0.910896,0.544369 1.930232,0.923909c1.025842,0.373034 1.84348,0.72221 2.45725,1.045362c0.615939,0.32532 1.142958,0.782937 1.587562,1.366344c0.446773,0.587745 0.670159,1.333812 0.670159,2.229526c0,1.277423 -0.48798,2.296759 -1.459602,3.060177c-0.971622,0.754742 -2.257721,1.136451 -3.845282,1.136451c-1.713352,0 -3.37899,-0.444604 -4.990409,-1.335981l0,-2.9821c0.926078,0.622446 1.743715,1.073556 2.455082,1.357669c0.713535,0.284113 1.466109,0.427254 2.268565,0.427254c1.353331,-0.002169 2.025659,-0.427254 2.025659,-1.277423c0.002169,-0.290619 -0.134466,-0.563888 -0.403397,-0.819806c-0.268931,-0.262425 -0.923909,-0.572563 -1.958426,-0.943428c-1.028011,-0.368696 -1.845649,-0.713535 -2.452913,-1.028011c-0.605095,-0.318814 -1.123438,-0.769924 -1.561536,-1.359838c-0.440266,-0.587745 -0.661484,-1.335981 -0.661484,-2.255552c0,-1.186334 0.481474,-2.147112 1.435746,-2.875829c0.95861,-0.730886 2.236033,-1.095244 3.843114,-1.095244c1.476953,0 3.038489,0.357852 4.68027,1.071387m-13.06702,10.403734l0,2.535327l-10.19336,0l0,-13.832606l10.054557,0l0,2.535327l-6.610502,0l0,2.901854l6.30687,0l0,2.535327l-6.30687,0l0,3.32477l6.749306,0zm-13.379327,-11.297279l0,2.535327l-5.007759,0l0,11.297279l-3.446223,0l0,-11.297279l-5.007759,0l0,-2.535327l13.461742,0zm-22.588052,2.535327l0,3.149098l1.819623,0c0.581238,0 1.041024,-0.136634 1.379357,-0.412072c0.340502,-0.273269 0.509668,-0.661484 0.509668,-1.171152c0,-1.043193 -0.654978,-1.565874 -1.96927,-1.565874l-1.739378,0zm-3.446223,-2.535327l6.174574,0c1.342487,0 2.429056,0.390384 3.268382,1.164646c0.839326,0.778599 1.255735,1.715521 1.255735,2.817271c0.002169,1.522498 -0.789443,2.652442 -2.374836,3.387666c0.700522,0.30797 1.362006,1.158139 1.984452,2.544002c0.624614,1.383694 1.225372,2.691481 1.808779,3.919022l-3.791062,0c-0.223386,-0.457617 -0.618108,-1.325137 -1.17549,-2.604729c-0.555213,-1.279592 -1.036686,-2.103736 -1.435746,-2.465926c-0.39689,-0.36219 -0.826313,-0.544369 -1.279592,-0.544369l-0.988973,0l0,5.615023l-3.446223,0l0,-13.832606zm-11.453433,11.138957c1.309955,0 2.357486,-0.390384 3.159942,-1.162477c0.800287,-0.778599 1.197178,-1.793598 1.197178,-3.05367c0,-1.266579 -0.399059,-2.288084 -1.197178,-3.058008c-0.800287,-0.77643 -1.852155,-1.160308 -3.159942,-1.160308c-1.314293,0 -2.370498,0.386046 -3.172954,1.160308c-0.800287,0.769924 -1.201515,1.791429 -1.201515,3.058008c0,1.260073 0.401228,2.275071 1.201515,3.05367c0.802456,0.772093 1.858662,1.162477 3.172954,1.162477m0,-11.316798c2.357486,0 4.263861,0.711366 5.721294,2.136268c1.459602,1.422733 2.190488,3.075358 2.190488,4.964383c0,1.912882 -0.74173,3.574182 -2.218682,4.981734c-1.476953,1.403214 -3.376822,2.105905 -5.6931,2.105905c-2.340135,0 -4.250848,-0.698354 -5.719126,-2.099398c-1.472615,-1.396707 -2.210007,-3.062346 -2.210007,-4.98824c0,-1.893362 0.733054,-3.552494 2.192657,-4.97089c1.46394,-1.420564 3.376822,-2.129762 5.736476,-2.129762m-18.09213,2.713169l0,3.207655l1.602743,0c1.431408,0 2.147112,-0.533525 2.147112,-1.602743c0,-0.600758 -0.193023,-1.014998 -0.576901,-1.253566c-0.37954,-0.23423 -1.036686,-0.351346 -1.958426,-0.351346l-1.214528,0zm-3.446223,-2.535327l6.165898,0c1.398876,0 2.51147,0.407734 3.337783,1.223203c0.821975,0.808962 1.236216,1.769741 1.236216,2.877998c0,1.149464 -0.409903,2.129762 -1.223203,2.949568c-0.815469,0.815469 -1.925894,1.227541 -3.331277,1.227541l-2.739194,-0.002169l0,5.556466l-3.446223,0l0,-13.832606zm-4.046981,0.893546l0,2.702325c-1.836974,-0.821975 -3.296576,-1.240554 -4.385314,-1.240554c-0.620277,0 -1.116932,0.106271 -1.48129,0.316645c-0.366527,0.203867 -0.548706,0.481474 -0.548706,0.826313c0,0.264594 0.132297,0.514006 0.394722,0.750405c0.264594,0.238568 0.908727,0.544369 1.930232,0.923909c1.021505,0.373034 1.839142,0.72221 2.45725,1.045362c0.61377,0.32532 1.140789,0.782937 1.585393,1.366344c0.448942,0.587745 0.670159,1.333812 0.670159,2.229526c0.002169,1.277423 -0.485811,2.296759 -1.459602,3.060177c-0.971622,0.754742 -2.255552,1.136451 -3.845282,1.136451c-1.715521,0 -3.37899,-0.444604 -4.990409,-1.335981l0.002169,-2.9821c0.923909,0.622446 1.739378,1.073556 2.452913,1.357669s1.468278,0.427254 2.268565,0.427254c1.351162,-0.002169 2.027828,-0.427254 2.027828,-1.277423c0,-0.290619 -0.136634,-0.563888 -0.405566,-0.819806c-0.2711,-0.262425 -0.92174,-0.572563 -1.956258,-0.943428c-1.03018,-0.368696 -1.849986,-0.713535 -2.455082,-1.028011c-0.600758,-0.318814 -1.123438,-0.769924 -1.563705,-1.359838c-0.440266,-0.587745 -0.657146,-1.335981 -0.657146,-2.255552c0,-1.186334 0.477136,-2.147112 1.435746,-2.875829c0.956441,-0.730886 2.236033,-1.095244 3.840945,-1.095244c1.479122,0 3.038489,0.357852 4.682439,1.071387m-13.53765,-0.893546l0,13.832606l-2.904023,0l-7.642851,-8.859548l0,8.859548l-3.444054,0l0,-13.832606l3.157773,0l7.384764,8.456151l0,-8.456151l3.448392,0zm-22.51865,8.683875l-2.231695,-5.374286l-2.025659,5.374286l4.257354,0zm-0.277606,-8.683875l6.135535,13.832606l-3.702142,0l-1.140789,-2.734857l-6.185418,0l-1.03018,2.734857l-3.65009,0l5.571647,-13.832606l4.001436,0zm-19.415098,2.535327l0,3.149098l1.821792,0c0.581238,0 1.041024,-0.136634 1.379357,-0.412072c0.34267,-0.273269 0.509668,-0.661484 0.509668,-1.171152c0,-1.043193 -0.654978,-1.565874 -1.96927,-1.565874l-1.741546,0zm-3.444054,-2.535327l6.176742,0c1.340318,0 2.426887,0.390384 3.266213,1.164646c0.841494,0.778599 1.255735,1.715521 1.255735,2.817271c0.002169,1.522498 -0.789443,2.652442 -2.374836,3.387666c0.700522,0.30797 1.362006,1.158139 1.984452,2.544002c0.624614,1.383694 1.227541,2.691481 1.80661,3.919022l-3.791062,0c-0.223386,-0.457617 -0.61377,-1.325137 -1.173321,-2.604729c-0.555213,-1.279592 -1.036686,-2.103736 -1.435746,-2.465926c-0.39689,-0.36219 -0.828482,-0.544369 -1.281761,-0.544369l-0.988973,0l0,5.615023l-3.444054,0l0,-13.832606zm-3.146929,0l0,2.535327l-5.00559,0l0,11.297279l-3.448392,0l0,-11.297279l-5.007759,0l0,-2.535327l13.461742,0z"/>
   <path id="svg_6" fill="#007d42" d="m146.7192,84.150038l10.98931,-18.476007l7.404283,18.476007l-18.393593,0zm21.909218,8.822678l4.112045,10.24758l0.52485,0l15.107861,0l0,-28.198738l26.255493,28.198738l13.613558,0l0,-38.29667l-0.002169,-7.22861l4.17494,7.22861l13.296913,0l0,38.29667l15.257508,0l0,-38.29667l0.425085,0l17.688733,0l0.427254,0l0,38.29667l15.257508,0l0,-38.29667l18.547578,0l-7.124508,-12.340472l-33.000461,0l-2.951737,5.111862l-2.951737,-5.111862l-10.091426,0l-22.906866,0l-6.046614,0l-15.259677,0l0,12.340472l0,15.708618l-26.179585,-28.04909l-13.53765,0l0,16.309376l-7.178728,-16.309376l-16.901458,0l-30.007517,50.637142l16.602164,0l5.712619,-10.24758l27.136026,0z"/>
   <path id="svg_7" fill="#fbb028" d="m58.926176,99.639608c0.09109,-0.206036 0.195192,-0.405566 0.316645,-0.602926l0.015182,-0.026026l39.131658,-52.619426l-64.97291,7.814186l-0.015182,0c-0.245074,0.01735 -0.483642,0.010844 -0.709198,-0.023857l26.233805,45.458048z"/>
   <path id="svg_8" fill="#0057a7" d="m59.576816,0.004936l-29.280969,51.259588c0.383878,0.928246 1.112594,1.895531 2.062529,1.830467l54.115898,-6.508569l-26.897458,-46.581486z"/>
   <path id="svg_9" fill="#0057a7" d="m92.28232,56.656161l26.884445,46.564136l-58.876414,0c-0.553044,-0.95861 -1.331643,-1.60925 -0.583407,-2.72835l0.002169,-0.01735l32.573207,-43.818435z"/>
   <path id="svg_10" fill="#007d42" d="m29.92932,51.837087l-29.92944,51.38321l59.589949,0l-29.660509,-51.38321z"/>
  </g>
 </g>
</svg>